<?xml version="1.0" encoding="UTF-8" standalone="no"?>
<!DOCTYPE svg PUBLIC "-//W3C//DTD SVG 1.1//EN" "http://www.w3.org/Graphics/SVG/1.1/DTD/svg11.dtd">
<svg width="100%" height="100%" viewBox="0 0 240 240" version="1.1" xmlns="http://www.w3.org/2000/svg" xmlns:xlink="http://www.w3.org/1999/xlink" xml:space="preserve" xmlns:serif="http://www.serif.com/" style="fill-rule:evenodd;clip-rule:evenodd;stroke-linejoin:round;stroke-miterlimit:2;">
    <g id="orientConstraint">
        <g>
            <path d="M119,222.6C63,222.6 17.5,176.6 17.5,120.1C17.5,63.6 63,17.6 119,17.6C175,17.6 220.5,63.6 220.5,120.1C220.5,176.6 175,222.6 119,222.6Z" style="fill:rgb(89,125,166);"/>
            <g>
                <path d="M119,28.4C169.2,28.4 209.8,69.5 209.8,120.1C209.8,170.7 169.1,211.8 119,211.8C68.9,211.8 28.2,170.7 28.2,120.1C28.2,69.5 68.8,28.4 119,28.4M119,6.8C57.1,6.8 6.8,57.6 6.8,120.1C6.8,182.6 57.1,233.4 119,233.4C180.9,233.4 231.2,182.6 231.2,120.1C231.2,57.6 180.9,6.8 119,6.8Z" style="fill:rgb(89,125,166);fill-rule:nonzero;"/>
            </g>
        </g>
        <rect x="0" y="0" width="240" height="240" style="fill:none;"/>
    </g>
    <g id="Layer_3">
        <path d="M98.8,100.1L98.8,186.3C98.8,186.3 97.1,204.8 117.3,204.8C137.5,204.8 135.2,186.9 135.2,186.9L135.2,100.1C135.2,100.1 157.4,94.3 157.4,76.1C157.4,57.9 158.3,60.9 158.3,60.9C158.3,60.9 158.3,35.4 132.8,35.4L132.8,69.9C132.8,69.9 132.6,80 119.3,81.2C106,82.4 106,70.7 106,70.7L106,35.5C106,35.5 81.5,33.9 81.9,64C82.4,94.1 81.9,76.4 81.9,76.4C81.9,76.4 82.3,99.3 98.8,100.1Z" style="fill:white;fill-rule:nonzero;"/>
    </g>
</svg>
